<?xml version="1.0" standalone="no"?>
<!DOCTYPE svg PUBLIC "-//W3C//DTD SVG 20010904//EN"
 "http://www.w3.org/TR/2001/REC-SVG-20010904/DTD/svg10.dtd">
<svg version="1.0" xmlns="http://www.w3.org/2000/svg"
 width="300.000000pt" height="300.000000pt" viewBox="0 0 300.000000 300.000000"
 preserveAspectRatio="xMidYMid meet">
<metadata>
Created by potrace 1.11, written by Peter Selinger 2001-2013
</metadata>
<g transform="translate(0.000000,300.000000) scale(0.100000,-0.100000)"
fill="#000000" stroke="none">
<path d="M0 1500 l0 -1500 1500 0 1500 0 0 1500 0 1500 -1500 0 -1500 0 0
-1500z m1160 920 l0 -100 145 0 145 0 0 -105 0 -105 -145 0 c-80 0 -145 -3
-145 -7 0 -5 24 -22 53 -40 29 -17 98 -65 154 -107 l103 -75 -58 -90 -57 -90
-97 97 -98 97 0 -163 0 -162 -110 0 -110 0 -1 188 c0 149 -3 183 -12 168 -77
-121 -272 -356 -295 -356 -8 0 -122 172 -122 183 0 3 25 25 56 48 78 57 186
161 244 235 28 34 50 64 50 68 0 3 -64 7 -142 8 l-143 3 -3 103 -3 102 186 0
185 0 0 100 0 100 110 0 110 0 0 -100z m918 -2 l3 -98 184 0 185 0 0 -105 0
-104 -151 -3 -150 -3 71 -59 c94 -77 310 -275 310 -284 0 -4 -33 -42 -73 -85
l-72 -78 -76 93 c-42 51 -109 129 -150 172 l-74 79 -5 -184 -5 -184 -107 -3
-108 -3 -2 208 -3 207 -46 -79 c-51 -88 -142 -212 -211 -290 l-45 -49 -63 93
-63 94 44 35 c70 56 200 193 247 260 l43 61 -113 3 -113 3 -3 102 -3 103 163
2 163 3 3 98 3 98 107 -3 107 -3 3 -97z m-662 -799 c46 -27 86 -53 88 -58 3
-4 -13 -30 -36 -57 l-40 -49 396 -3 396 -2 0 -95 c0 -87 -3 -101 -31 -158 -74
-147 -215 -296 -373 -395 -257 -161 -644 -272 -1107 -317 l-65 -6 -55 103
c-37 67 -52 106 -45 110 6 4 30 8 53 8 167 0 726 104 727 135 1 6 -57 53 -127
105 l-128 95 76 73 75 73 63 -43 c34 -23 106 -76 161 -117 54 -42 104 -80 111
-85 8 -6 25 -4 46 4 63 27 204 127 267 191 109 109 140 99 -310 99 l-393 0
-60 -36 c-73 -44 -219 -118 -284 -144 l-48 -19 -49 87 c-27 47 -50 89 -52 94
-2 4 16 15 40 25 236 94 490 265 583 392 17 22 32 41 34 41 2 0 41 -23 87 -51z"/>
</g>
</svg>
